<svg xmlns="http://www.w3.org/2000/svg" width="60" height="59.999" viewBox="0 0 60 59.999">
    <g data-name="Group 78045">
        <g data-name="Group 78044">
            <path data-name="Path 66511" d="M163.237 161.47h-1.765v-24.706h1.765a1.764 1.764 0 0 0 1.248-3.012l-5.294-7.059a1.764 1.764 0 0 0-2.5 0l-5.294 7.059a1.764 1.764 0 0 0 1.248 3.012h1.765v24.706h-12.349v-38.823h1.765a1.764 1.764 0 0 0 1.248-3.012l-5.294-7.059a1.764 1.764 0 0 0-2.5 0l-5.294 7.059a1.764 1.764 0 0 0 1.248 3.012H135v38.823h-12.351v-24.706h1.765a1.764 1.764 0 0 0 1.248-3.012l-5.294-7.059a1.764 1.764 0 0 0-2.5 0l-5.294 7.059a1.764 1.764 0 0 0 1.248 3.012h1.765v24.706h-7.059v-54.705a1.765 1.765 0 1 0-3.529 0v56.47a1.764 1.764 0 0 0 1.768 1.765h56.47a1.765 1.765 0 0 0 0-3.529z" transform="translate(-105.002 -105)" style="fill:#283763"/>
        </g>
    </g>
</svg>
