<svg xmlns="http://www.w3.org/2000/svg" width="96" height="96.004" viewBox="0 0 96 96.004">
    <path data-name="com_body_setting_ic" d="m90.736 37.578-7.52-.956a37.8 37.8 0 0 0-2.276-5.5l4.644-5.98a5.946 5.946 0 0 0-.488-7.916l-6.3-6.3a5.962 5.962 0 0 0-7.94-.508l-5.972 4.644a37.666 37.666 0 0 0-5.5-2.276l-.958-7.506A5.991 5.991 0 0 0 52.482 0h-8.96a5.991 5.991 0 0 0-5.944 5.268l-.956 7.52a37.23 37.23 0 0 0-5.5 2.276l-5.977-4.644a5.951 5.951 0 0 0-7.916.488l-6.3 6.3a5.964 5.964 0 0 0-.508 7.944l4.644 5.976a37.361 37.361 0 0 0-2.276 5.5l-7.508.956A5.991 5.991 0 0 0 0 43.522v8.96a5.991 5.991 0 0 0 5.268 5.944l7.52.956a37.8 37.8 0 0 0 2.276 5.5l-4.644 5.98a5.946 5.946 0 0 0 .488 7.916l6.3 6.3a5.967 5.967 0 0 0 7.94.5l5.976-4.644a36.933 36.933 0 0 0 5.5 2.276l.956 7.5A5.991 5.991 0 0 0 43.522 96h8.96a5.991 5.991 0 0 0 5.944-5.268l.956-7.52a37.8 37.8 0 0 0 5.5-2.276l5.98 4.644a5.946 5.946 0 0 0 7.916-.488l6.3-6.3a5.958 5.958 0 0 0 .508-7.94l-4.644-5.976a36.931 36.931 0 0 0 2.276-5.5l7.5-.956A5.991 5.991 0 0 0 96 52.482v-8.96a5.984 5.984 0 0 0-5.264-5.944zM48 68a20 20 0 1 1 20-20 20.024 20.024 0 0 1-20 20z" style="fill:#a0c3e5"/>
</svg>
