<svg xmlns="http://www.w3.org/2000/svg" width="60" height="60" viewBox="0 0 60 60">
    <defs>
        <clipPath id="ygbxwdjmpa">
            <path data-name="Rectangle 59956" style="fill:#283763" d="M0 0h60v60H0z"/>
        </clipPath>
        <clipPath id="9exkz3e3xb">
            <path data-name="Rectangle 59955" style="fill:#283763" d="M0 0h60v54.696H0z"/>
        </clipPath>
    </defs>
    <g data-name="Group 120926" style="clip-path:url(#ygbxwdjmpa)">
        <g data-name="Group 120925" style="clip-path:url(#9exkz3e3xb)" transform="translate(0 2.143)">
            <path data-name="Path 94932" d="M57.323 8.478A17.51 17.51 0 0 0 50.8 2.151 17.211 17.211 0 0 0 30 5.345 17.188 17.188 0 0 0 17.545 0 17.421 17.421 0 0 0 1.759 10.195 19.044 19.044 0 0 0 0 18.219 19.469 19.469 0 0 0 6.976 33.19c1.463 1.21 2.9 2.46 4.345 3.718 5.994 5.233 11.738 10.736 17.289 16.447.2.206.383.369.567.545l.112.107.719.689.828-.8c.2-.191.368-.354.547-.532 2.649-2.632 5.258-5.285 7.922-7.859q6.658-6.435 13.778-12.367A19.356 19.356 0 0 0 60 18.249a18.911 18.911 0 0 0-2.677-9.772m-3.014 19.882a16.93 16.93 0 0 1-2.76 2.942q-7.177 5.993-13.908 12.484c-2.589 2.5-5.107 5.057-7.64 7.577-5.491-5.635-11.173-11.074-17.107-16.256a217.616 217.616 0 0 0-4.392-3.758 17.08 17.08 0 0 1-6.109-13.129A16.653 16.653 0 0 1 3.929 11.2a15.027 15.027 0 0 1 13.616-8.81 14.94 14.94 0 0 1 11.122 4.994c.088.1.193.22.323.357l.04.041.093.08.063.053.146.085.109.064.116.071.766.471.663-.8c.134-.163.233-.29.3-.369A14.876 14.876 0 0 1 49.64 4.244a15.1 15.1 0 0 1 5.635 5.469 16.514 16.514 0 0 1 2.334 8.536 17.024 17.024 0 0 1-3.3 10.11z" style="fill:#283763"/>
        </g>
    </g>
</svg>
