<svg xmlns="http://www.w3.org/2000/svg" width="60" height="60" viewBox="0 0 60 60">
    <defs>
        <clipPath id="h2qog1obka">
            <path data-name="Rectangle 40625" transform="translate(-83 11990)" style="stroke:#707070;fill:#a0c3e5" d="M0 0h60v60H0z"/>
        </clipPath>
    </defs>
    <g style="clip-path:url(#h2qog1obka)">
        <path data-name="5H" d="M43.582 60H5.372A5.346 5.346 0 0 1 0 54.692V5.308A5.346 5.346 0 0 1 5.372 0h38.21a5.346 5.346 0 0 1 5.372 5.308v49.384A5.347 5.347 0 0 1 43.582 60zM5.372 4.55a.774.774 0 0 0-.768.759v49.383a.773.773 0 0 0 .768.758h38.21a.773.773 0 0 0 .768-.758V5.308a.774.774 0 0 0-.768-.759zm30.414 42.193H12.945a2.275 2.275 0 1 1 0-4.55h22.841a2.275 2.275 0 1 1 0 4.55zM35.9 37.2H13.056a2.276 2.276 0 1 1 0-4.551H35.9a2.276 2.276 0 1 1 0 4.551zm-.111-9.525H12.945a2.276 2.276 0 1 1 0-4.551h22.841a2.276 2.276 0 1 1 0 4.551zm-9.092-9.54H12.945a2.275 2.275 0 1 1 0-4.55h13.75a2.275 2.275 0 1 1 0 4.55z" transform="translate(5.523)" style="fill:#a0c3e5"/>
    </g>
</svg>
