<svg xmlns="http://www.w3.org/2000/svg" width="60" height="60" viewBox="0 0 60 60">
    <path data-name="Path 94569" d="M7.489 17.839c-1.334 0-5.609-.013-6.883.006-.492.007-.606-.125-.606-.511.025-2.057-.01-4.115.007-6.173a4.052 4.052 0 0 1 3.264-3.81 8.041 8.041 0 0 1 2.089-.273c3.141-.029 6.284-.013 9.425-.013h.573v-.46c.008-1.6.062-3.2 0-4.8-.033-.917 1.2-1.8 2.217-1.8C18.71.009 19.839 0 20.968 0H38.6c1.273 0 2.547.052 3.82.036A2.135 2.135 0 0 1 44.7 2.1c-.055 1.546-.007 3.1 0 4.643 0 .087.015.175.029.323h9.948c3.123 0 5.309 1.7 5.321 4.161.011 2.123 0 4.246-.01 6.369 0 .074-.014.148-.026.261h-7.41v.53q0 13.091.005 26.182 0 5.682-.008 11.363a3.821 3.821 0 0 1-2.459 3.485 5.663 5.663 0 0 1-2.539.564c-2.445.01-1.891.012-4.336.013-11.076 0-19.152-.007-30.228.005a6.017 6.017 0 0 1-4.348-1.461 3.425 3.425 0 0 1-1.146-2.588c.005-2.892.019-5.783.019-8.675 0-2.533-.02-5.066-.021-7.6v-21.23zm4.737.023c-.014.13-.034.229-.035.328q-.021 5.509-.036 11.017c0 1.66.032 3.321.033 4.981q.006 10.731 0 21.461c0 .575.051.62.705.621h34.234c.6 0 .668-.054.681-.525v-37.38c0-.161-.018-.321-.029-.5zm43.025-3.738v-2.668c0-.654-.013-.664-.847-.664H5.663a1.554 1.554 0 0 0-.48.013c-.163.06-.4.19-.4.293-.03.994-.018 1.988-.018 3.025zM39.909 3.761h-19.82v3.284h19.82z" style="fill:#283763"/>
    <path data-name="Rectangle 59468" transform="translate(16.767 22.238)" style="fill:#283763" d="M0 0h4.675v30.702H0z"/>
    <path data-name="Rectangle 59469" transform="translate(38.649 22.247)" style="fill:#283763" d="M0 0h4.679v30.698H0z"/>
    <path data-name="Rectangle 59470" transform="translate(27.708 22.235)" style="fill:#283763" d="M0 0h4.684v30.695H0z"/>
</svg>
