<svg xmlns="http://www.w3.org/2000/svg" width="60" height="60" viewBox="0 0 60 60">
    <defs>
        <clipPath id="oq1yek646a">
            <path data-name="Rectangle 59365" transform="translate(-6573 -15570)" style="fill:#fff" d="M0 0h60v60H0z"/>
        </clipPath>
    </defs>
    <g data-name="Group 120351" transform="translate(6573 15570)" style="clip-path:url(#oq1yek646a)">
        <g data-name="Group 120350">
            <path data-name="Path 94558" d="M675.543 1166.765h-54.216a.771.771 0 0 0-.288 0 1.325 1.325 0 0 0-.84 1.516v37.679c0 .15.01.3.015.474h56.5v-38.084c.003-1.105-.349-1.585-1.171-1.585zm-2.986 36.03h-48.182c0-.139-.013-.264-.013-.387v-30.759a1.077 1.077 0 0 1 .716-1.238.7.7 0 0 1 .246 0h46.231c.7 0 1 .392 1 1.3z" transform="translate(-7191.44 -16730.983)" style="fill:#fff"/>
            <path data-name="Path 94559" d="M723.316 1239.142z" transform="translate(-7238.037 -16763.687)" style="fill:#fff"/>
        </g>
        <path data-name="Path 78344" d="M654.012 1241.719h15.4v.454c0 1.273.026 2.547-.014 3.821-.012.406.195.5.755.488 1.222-.025 2.446-.01 3.67-.006 1.311 0 2.174.528 2.168 1.31s-.875 1.29-2.193 1.29h-24.17c-1.565 0-2.532-.805-2.077-1.717a2.047 2.047 0 0 1 1.894-.881c1.286-.01 2.577-.024 3.859.007.6.014.735-.129.726-.506-.036-1.4-.018-2.8-.018-4.26z" transform="translate(-7203.757 -16764.851)" style="fill:#fff"/>
        <path data-name="Path 78379" d="M660.27 1196.17h.015c0 2.107-.022 4.215.007 6.322.024 1.714.713 2.541 2.507 1.546q5.914-3.286 11.808-6.617c1.371-.776 1.832-1.75.2-2.686-3.911-2.245-7.84-4.465-11.814-6.6-1.8-.971-2.726-.228-2.723 1.715v6.322z" transform="translate(-7209.555 -16740.45)" style="fill:#fff"/>
    </g>
</svg>
