<svg xmlns="http://www.w3.org/2000/svg" width="60" height="60" viewBox="0 0 60 60">
    <defs>
        <clipPath id="b0b1kkxvna">
            <path data-name="Rectangle 59553" style="fill:none" d="M0 0h60v60H0z"/>
        </clipPath>
    </defs>
    <g data-name="Group 120449" style="clip-path:url(#b0b1kkxvna)">
        <path data-name="Path 94580" d="M32.363 0C16.957-.113 4.382 13.225 4.277 29.793S16.573 59.886 31.979 60s27.98-13.225 28.086-29.794V30C60.1 13.5 47.707.077 32.363 0M34.5 45.6v3.415a2.147 2.147 0 1 1-4.282.1V45.6a10.139 10.139 0 0 1-7.118-1.936 2.443 2.443 0 0 1-.539-3.228 2.041 2.041 0 0 1 2.966-.593l.014.011a5.212 5.212 0 0 0 3.052 1.109h7.188a4.34 4.34 0 0 0 0-8.646h-6.832c-4.582-.024-8.282-4.032-8.271-8.96 0-4.438 2.778-8.962 9.551-8.962v-3.412a2.147 2.147 0 1 1 4.282-.1V14.4a9.581 9.581 0 0 1 8.11 3.411 2.457 2.457 0 0 1-.129 3.24 2.026 2.026 0 0 1-3.012-.089l-.015-.017a5.313 5.313 0 0 0-3.922-1.916h-6.59A4.192 4.192 0 0 0 25 23.419a4.182 4.182 0 0 0 3.957 4.256h6.829c4.582.024 8.282 4.032 8.271 8.96 0 4.757-3.07 8.965-9.549 8.965" transform="translate(-.066)" style="fill:#283763"/>
        <path data-name="Path 94581" d="M2.682 29.793c.1-16.01 11.849-29 26.541-29.756C28.846.019 28.468 0 28.087 0 12.681-.113.106 13.225 0 29.793S12.3 59.886 27.7 60c.527 0 1.05-.011 1.57-.038-14.886-.738-26.695-14-26.591-30.167" style="fill:#283763"/>
    </g>
</svg>
