<svg xmlns="http://www.w3.org/2000/svg" width="84" height="84" viewBox="0 0 84 84">
    <defs>
        <linearGradient id="0cxy0ewtsa" y1=".54" x2="1" y2=".54" gradientUnits="objectBoundingBox">
            <stop offset="0" stop-color="#b9c4cd"/>
            <stop offset="1" stop-color="#939aa1"/>
        </linearGradient>
    </defs>
    <path d="M-903.943 691.862c0 5.789-.009 11.3.009 16.812a17.427 17.427 0 0 0 .2 2.655c.408 2.564 1.881 3.57 3.571 2.453a7.44 7.44 0 0 0 1.354-1.172q11.531-12.535 23.042-25.109c2.833-3.107 5.61-6.319 8.372-9.553a7.229 7.229 0 0 0-.143-9.879q-11.978-14.015-23.91-28.111c-2.169-2.555-4.3-5.172-6.488-7.7a8.393 8.393 0 0 0-2.03-1.745c-1.348-.792-2.576.138-2.9 2.157a19.368 19.368 0 0 0-.167 2.945c-.015 5.279-.006 10.559-.006 15.838v1.7h-1.184q-21.053-.019-42.105-.041c-1.706 0-2.707 1.147-3.014 3.618a24.329 24.329 0 0 0-.165 2.953q-.019 13.151 0 26.3a18.011 18.011 0 0 0 .185 2.665c.294 1.929 1.287 3.071 2.681 3.181.463.036.929.022 1.393.022h41.306z" transform="rotate(90 -117.642 831.876)" style="fill:url(#0cxy0ewtsa)"/>
</svg>
