<svg xmlns="http://www.w3.org/2000/svg" width="120" height="120" viewBox="0 0 120 120">
    <defs>
        <clipPath id="0lys6pu3mb">
            <path data-name="Rectangle 59640" transform="translate(465 2703)" style="fill:url(#t8yjmvyjya)" d="M0 0h120v120H0z"/>
        </clipPath>
        <clipPath id="905z5goctc">
            <path data-name="Path 94628" d="M24.551 110.466 46.1 103.93l21.552 6.536V84.733a33.25 33.25 0 0 0-4.6 1.32 31.265 31.265 0 0 0-4.985 2.922c-3.249 2.169-6.931 4.622-11.28 4.622s-8.03-2.453-11.276-4.615a31.211 31.211 0 0 0-4.984-2.922 33.23 33.23 0 0 0-5.842-1.56l-.134-.028z" style="fill:url(#t8yjmvyjya)"/>
        </clipPath>
        <clipPath id="5al59hkdod">
            <path data-name="Path 94629" d="M38.089 85.12a34.68 34.68 0 0 0-5.784-3.346 37.134 37.134 0 0 0-6.687-1.827c-3.433-.706-6.678-1.378-8.638-3.338s-2.628-5.205-3.339-8.641a37.071 37.071 0 0 0-1.823-6.682A34.813 34.813 0 0 0 8.472 55.5c-1.973-2.963-3.835-5.753-3.835-8.7s1.863-5.738 3.835-8.7a34.835 34.835 0 0 0 3.346-5.789 36.948 36.948 0 0 0 1.823-6.678c.711-3.436 1.382-6.685 3.342-8.645s5.2-2.631 8.641-3.339a36.931 36.931 0 0 0 6.681-1.822 34.852 34.852 0 0 0 5.787-3.347c2.963-1.975 5.758-3.838 8.7-3.838s5.738 1.863 8.694 3.832a34.666 34.666 0 0 0 5.789 3.348 36.979 36.979 0 0 0 6.681 1.823c3.437.711 6.686 1.379 8.642 3.339s2.628 5.2 3.339 8.642a36.9 36.9 0 0 0 1.823 6.681 34.74 34.74 0 0 0 3.349 5.793c1.972 2.962 3.835 5.753 3.835 8.7s-1.863 5.742-3.839 8.7a34.984 34.984 0 0 0-3.345 5.786 36.907 36.907 0 0 0-1.823 6.682c-.711 3.439-1.379 6.688-3.339 8.644s-5.205 2.629-8.645 3.34a36.893 36.893 0 0 0-6.681 1.822 34.751 34.751 0 0 0-5.783 3.346c-2.962 1.972-5.756 3.834-8.7 3.834s-5.738-1.862-8.7-3.834M46.8 0c-4.35 0-8.03 2.454-11.276 4.619a31.062 31.062 0 0 1-4.984 2.922A32.8 32.8 0 0 1 24.692 9.1c-3.953.817-8.042 1.663-10.985 4.607S9.917 20.741 9.1 24.7a33.22 33.22 0 0 1-1.563 5.84 31.276 31.276 0 0 1-2.922 4.991C2.453 38.773 0 42.452 0 46.8s2.452 8.03 4.615 11.275a31.22 31.22 0 0 1 2.922 4.985A33.176 33.176 0 0 1 9.1 68.9c.813 3.953 1.658 8.042 4.6 10.985s7.032 3.788 10.985 4.607a33.317 33.317 0 0 1 5.847 1.563 31.211 31.211 0 0 1 4.984 2.922c3.246 2.162 6.927 4.615 11.276 4.615s8.031-2.453 11.28-4.622a31.265 31.265 0 0 1 4.985-2.922A33.166 33.166 0 0 1 68.9 84.49c3.957-.813 8.049-1.657 10.989-4.6s3.784-7.033 4.6-10.988a33.006 33.006 0 0 1 1.564-5.844 31.146 31.146 0 0 1 2.922-4.985c2.166-3.245 4.619-6.926 4.619-11.275s-2.453-8.028-4.616-11.273a30.909 30.909 0 0 1-2.925-4.991 33.006 33.006 0 0 1-1.564-5.844c-.813-3.953-1.657-8.045-4.6-10.985S72.857 9.921 68.9 9.1a33.179 33.179 0 0 1-5.84-1.559 30.951 30.951 0 0 1-4.991-2.925C54.824 2.454 51.146 0 46.8 0z" style="fill:url(#t8yjmvyjya)"/>
        </clipPath>
        <clipPath id="rxgz1xmkwe">
            <path data-name="Path 94630" d="M35.736 62.431a.708.708 0 0 1-.078-.456l1.851-11.7a.7.7 0 0 0-.211-.62L28.709 41.5a.7.7 0 0 1 .374-1.2l11.7-1.855a.7.7 0 0 0 .524-.392l5.1-10.69a.7.7 0 0 1 1.26-.015l5.38 10.552a.7.7 0 0 0 .534.378l11.744 1.552a.7.7 0 0 1 .4 1.193L57.35 49.4a.7.7 0 0 0-.194.625l2.154 11.647a.7.7 0 0 1-1 .751l-10.556-5.376a.7.7 0 0 0-.654.008L36.688 62.7a.7.7 0 0 1-.952-.272m-14.49-23.711A26.671 26.671 0 1 0 47.2 18.179a26.7 26.7 0 0 0-25.954 20.538" style="fill:url(#t8yjmvyjya)"/>
        </clipPath>
        <linearGradient id="t8yjmvyjya" x1="-.731" y1="-1.307" x2="1.608" y2="-1.445" gradientUnits="objectBoundingBox">
            <stop offset="0" stop-color="#f5fbff"/>
            <stop offset="1" stop-color="#90c3ea"/>
        </linearGradient>
    </defs>
    <g data-name="Group 120476" transform="translate(-465 -2703)" style="clip-path:url(#0lys6pu3mb)">
        <g data-name="Group 120471">
            <g data-name="Group 120470" style="clip-path:url(#905z5goctc)" transform="translate(478.203 2707.866)">
                <path data-name="Rectangle 59637" transform="translate(24.551 84.469)" style="fill:url(#t8yjmvyjya)" d="M0 0h43.105v25.997H0z"/>
            </g>
        </g>
        <g data-name="Group 120473">
            <g data-name="Group 120472" style="clip-path:url(#5al59hkdod)" transform="translate(478.203 2707.866)">
                <path data-name="Rectangle 59638" style="fill:url(#t8yjmvyjya)" d="M0 0h93.594v93.597H0z"/>
            </g>
        </g>
        <g data-name="Group 120475">
            <g data-name="Group 120474" style="clip-path:url(#rxgz1xmkwe)" transform="translate(478.203 2707.866)">
                <path data-name="Rectangle 59639" transform="rotate(-76.11 47.766 32.454)" style="fill:url(#t8yjmvyjya)" d="M0 0h68.538v70.495H0z"/>
            </g>
        </g>
    </g>
</svg>
