<svg xmlns="http://www.w3.org/2000/svg" width="120" height="120" viewBox="0 0 120 120">
    <defs>
        <linearGradient id="3en601e66a" x1="-.731" y1="-1.307" x2="1.608" y2="-1.445" gradientUnits="objectBoundingBox">
            <stop offset="0" stop-color="#f5fbff"/>
            <stop offset="1" stop-color="#90c3ea"/>
        </linearGradient>
        <clipPath id="26pmbgit3b">
            <path data-name="Rectangle 40884" transform="translate(611 1705)" style="fill:url(#3en601e66a)" d="M0 0h120v120H0z"/>
        </clipPath>
    </defs>
    <g data-name="Group 84094" transform="translate(-611 -1705)" style="clip-path:url(#26pmbgit3b)">
        <path data-name="Path 83174" d="M81.613 54.617a22.311 22.311 0 0 0-8.436 1.664l1.616-3.894L86.7 48.128V38.24l-1.416-.472-10.7-3.386-2.773-6.832 5.416-11.445-6.976-6.973-1.286.668-9.888 5.015-6.777-2.839L48.069 0h-9.817l-.472 1.416-3.457 10.56-6.773 2.844L16.047 9.4l-6.974 6.977.673 1.286 4.944 9.947-2.773 6.773L0 38.642v9.888l1.416.47 10.631 3.516 2.773 6.773L9.4 70.735l6.973 6.973 1.286-.673 9.888-5.015 6.843 2.773 4.263 11.917h9.817l.472-1.416L52.4 74.735l6.832-2.773.566.271a22.327 22.327 0 1 0 21.815-17.616zM58.959 43.456A15.7 15.7 0 1 1 43.326 27.68a15.706 15.706 0 0 1 15.634 15.7zM81.625 90.84a14.738 14.738 0 0 1-2.7 1.416 3.453 3.453 0 0 1-1.156.2 1.631 1.631 0 0 1-1.286-.543 2.469 2.469 0 0 1-.472-1.758 15.821 15.821 0 0 1 .673-4.13l1.416-5.143a23.472 23.472 0 0 0 1.086-5.015c0-.342-.13-.543-.472-.543a3.436 3.436 0 0 0-1.015.342 17.564 17.564 0 0 0-2.844 1.758l-.543-1.156A70.616 70.616 0 0 1 80.87 71.8a6.886 6.886 0 0 1 2.7-.885 1.457 1.457 0 0 1 .944.472 1.638 1.638 0 0 1 .4 1.215A28.826 28.826 0 0 1 83.5 78.9l-.673 2.3a33.336 33.336 0 0 0-1.627 6.773c0 .472.2.743.614.743a15.4 15.4 0 0 0 3.658-2.029l.614 1.156zM86.085 66a2.827 2.827 0 0 1-2.171.944 2.423 2.423 0 0 1-1.687-.673 2.577 2.577 0 0 1-.743-1.628 3.848 3.848 0 0 1 .873-2.572 2.827 2.827 0 0 1 2.171-.944 2.423 2.423 0 0 1 1.687.673 2.242 2.242 0 0 1 .673 1.758A3.736 3.736 0 0 1 86.085 66z" transform="translate(619.4 1715.806)" style="fill:url(#3en601e66a)"/>
    </g>
</svg>
