<svg xmlns="http://www.w3.org/2000/svg" width="100" height="86" viewBox="0 0 100 86">
    <defs>
        <clipPath id="gmxsdcoeha">
            <path data-name="Rectangle 40510" transform="translate(591 925)" style="stroke:#707070;fill:#a0c3e5" d="M0 0h100v86H0z"/>
        </clipPath>
    </defs>
    <g data-name="Group 83425" transform="translate(-591 -925)" style="clip-path:url(#gmxsdcoeha)">
        <g data-name="Group 83377">
            <path data-name="Path 78399" d="M367.339 684.34a.392.392 0 0 1 .358-.42h61.662a.4.4 0 0 1 .358.42v.986h6.9v-.986c0-4.614-3.247-8.354-7.253-8.356H367.7c-4.006 0-7.253 3.743-7.251 8.356v47.084c0 4.614 3.245 8.354 7.252 8.356h15.4v-7.94H367.7a.39.39 0 0 1-.358-.415v-11.472H383.1v-5.008h-15.76v-3.356h15.76v-15.917c0-.363.016-.727.05-1.089h-15.81z" transform="translate(232.417 254.457)" style="fill:#a0c3e5"/>
            <path data-name="Path 78400" d="M450.424 686.393h-56.938c-4.008 0-7.256 3.741-7.256 8.356v47.072c0 4.614 3.247 8.356 7.254 8.357h56.94c4.006 0 7.255-3.741 7.256-8.354v-47.075c-.001-4.615-3.249-8.356-7.256-8.356zm.064 55.433a2.264 2.264 0 0 1-2.084 2.4h-52.9a2.267 2.267 0 0 1-2.08-2.4v-4.087h57.688v-7.047h-57.685v-10.669h57.066zm0-37.484h-57.066v-9.591a2.267 2.267 0 0 1 2.08-2.4h52.9a2.265 2.265 0 0 1 2.084 2.4z" transform="translate(231.007 255.38)" style="fill:#a0c3e5"/>
        </g>
    </g>
</svg>
