<svg xmlns="http://www.w3.org/2000/svg" width="60" height="52" viewBox="0 0 60 52">
    <defs>
        <clipPath id="2ljflw38oa">
            <path data-name="Rectangle 59935" transform="translate(127 1267)" style="stroke:#707070;fill:#a0c3e5" d="M0 0h60v52H0z"/>
        </clipPath>
    </defs>
    <g data-name="Group 120898" transform="translate(-127 -1267)" style="clip-path:url(#2ljflw38oa)">
        <path data-name="Path 94911" d="M75.993 49.49h-.955a.507.507 0 0 0-.1.012c-.069-.006-.132-.012-.2-.012H63.8a3.71 3.71 0 0 0-3.771 3.624v2.718a3.71 3.71 0 0 0 3.771 3.623h10.936c.069 0 .132-.006.2-.012.031 0 .069.012.1.012h.955a2.474 2.474 0 0 0 2.514-2.416v-5.133a2.474 2.474 0 0 0-2.512-2.416zm-10.841 6.794a1.813 1.813 0 1 1 1.885-1.812 1.855 1.855 0 0 1-1.885 1.812z" transform="translate(107.574 1248.009)" style="fill:#a0c3e5"/>
        <path data-name="Path 94912" d="M41.465.28a1.274 1.274 0 0 0-1.735.145l-6.31 7.229 25.259 6.5z" transform="translate(117.46 1267.608)" style="fill:#a0c3e5"/>
        <path data-name="Path 94913" d="M17.528 13.033a1.238 1.238 0 0 0-1.508.839l-2.25 8.057h38.3z" transform="translate(124.76 1262.464)" style="fill:#a0c3e5"/>
        <path data-name="Path 94914" d="M81.559 22.7v-2a1.237 1.237 0 0 0-1.259-1.21h-5.29l3.978 3.21z" transform="translate(102.008 1259.891)" style="fill:#a0c3e5"/>
        <path data-name="Path 94915" d="M52.585 49.987c-.05 0-.1.006-.151.006H41.492a6.176 6.176 0 0 1-6.285-6.039v-2.718a6.176 6.176 0 0 1 6.285-6.036h10.942c.05 0 .1.006.151.006s.1-.006.151-.006h.955v-8.875H5.581a.618.618 0 0 1-.628-.6v-1.091a.138.138 0 0 1 .013-.048c0-.024-.006-.042-.006-.066a1.949 1.949 0 0 1 1.62-1.686l.93-3.334H6.285A6.184 6.184 0 0 0 0 25.539v27.25a6.184 6.184 0 0 0 6.285 6.039h46.149a1.237 1.237 0 0 0 1.257-1.208V50h-.955a1.269 1.269 0 0 0-.151-.013z" transform="translate(129.876 1259.887)" style="fill:#a0c3e5"/>
    </g>
</svg>
