<svg xmlns="http://www.w3.org/2000/svg" width="54" height="54" viewBox="0 0 54 54">
    <g transform="translate(7009 -17890)">
        <circle data-name="Ellipse 4118" cx="27" cy="27" r="27" transform="translate(-7009 17890)" style="fill:#ed3833"/>
        <path data-name="Path 72679" d="M-568.006 1517.617a12.178 12.178 0 0 1-1.747-18.429 12.167 12.167 0 0 1 17.223 0 12.18 12.18 0 0 1-1.749 18.425c6.488 3.232 9.994 8.415 10.37 15.756h-3.432c-.33-5.7-2.923-9.975-8.125-12.437a13.285 13.285 0 0 0-11.878.227c.45 1.193.879 2.362 1.347 3.514.043.107.343.154.524.155 2.069.013 4.138-.016 6.206.022a4.958 4.958 0 0 1 4.872 3.981 5.059 5.059 0 0 1-4.621 6.266c-1.374.085-2.757.047-4.136.048-3.793.005-7.587-.048-11.379.019a3.349 3.349 0 0 1-3.574-4.131c.113-.45.133-.923.237-1.376a16.741 16.741 0 0 1 9.4-11.78c.127-.062.256-.12.382-.185a.383.383 0 0 0 .08-.075zm-1.737-9.925a8.253 8.253 0 0 0 4.085 7.266 8.336 8.336 0 0 0 9.408-.242 8.207 8.207 0 0 0 3.7-7.024zm2.661 23.967-3.164-8.428c-2.28 1.773-4.45 5.955-4.4 8.428zm-1.879-27.465c1.156 0 2.249.019 3.34-.014a1.471 1.471 0 0 0 .812-.291c1.642-1.285 3.265-2.6 4.893-3.9.247-.2.491-.4.77-.628a8.331 8.331 0 0 0-9.815 4.833zm4.285 24.08c.408 1.085.787 2.128 1.2 3.154a.585.585 0 0 0 .455.254c1.237.018 2.474.028 3.71 0a1.553 1.553 0 0 0 1.587-1.639 1.56 1.56 0 0 0-1.537-1.752c-1.778-.047-3.561-.017-5.415-.017zm8.99-27.263-3.931 3.149h6.342a8.312 8.312 0 0 0-2.411-3.149z" transform="translate(-6420.792 16398.383)" style="fill:#fff"/>
    </g>
</svg>
