<svg xmlns="http://www.w3.org/2000/svg" width="100" height="86" viewBox="0 0 100 86">
    <defs>
        <clipPath id="2z6lwpw4pa">
            <path data-name="Rectangle 40511" transform="translate(125 929)" style="stroke:#707070;fill:#a0c3e5" d="M0 0h100v86H0z"/>
        </clipPath>
    </defs>
    <g data-name="Group 83423" transform="translate(-125 -929)" style="clip-path:url(#2z6lwpw4pa)">
        <path data-name="Path 78395" d="M439.645 383.413h-1.793c-.066 0-.127.018-.192.02-.125-.007-.251-.02-.378-.02H416.7a7.116 7.116 0 0 0-7.095 7.095v5.321a7.116 7.116 0 0 0 7.095 7.095h20.586c.128 0 .253-.013.378-.019.065 0 .125.019.192.019h1.793a4.744 4.744 0 0 0 4.73-4.73v-10.051a4.744 4.744 0 0 0-4.734-4.73zm-20.394 13.3a3.547 3.547 0 1 1 3.547-3.547 3.551 3.551 0 0 1-3.547 3.55z" transform="translate(-221.62 585.061)" style="fill:#a0c3e5"/>
        <path data-name="Path 78396" d="M438.217 413.112c-.086 0-.169.016-.256.016h-22.44a10.053 10.053 0 0 1-7.538-3.528H362.84a.777.777 0 0 1-.683-.841v-20.2a.776.776 0 0 1 .683-.841h45.119a10.053 10.053 0 0 1 7.562-3.559h22.44c.087 0 .171.013.256.015s.169-.015.256-.015h1.606v-17.377h-81.091a1.13 1.13 0 0 1-1.06-1.182v-2.134c0-.032.015-.06.017-.092s-.016-.088-.016-.132c0-1.95 1.9-3.544 4.235-3.544h77.916v-3.918a2.26 2.26 0 0 0-2.119-2.365h-77.79c-5.827 0-10.594 5.321-10.594 11.825v53.351c0 6.5 4.767 11.825 10.594 11.825h77.79a2.259 2.259 0 0 0 2.119-2.365v-14.924h-1.606c-.087 0-.174-.011-.257-.015z" transform="translate(-222.055 579.587)" style="fill:#a0c3e5"/>
        <path data-name="Path 78397" d="m375.553 393.209 1.965-.9a.617.617 0 0 0 .318-.728l-.371-1.141a.609.609 0 0 0-.686-.4l-2.1.432a.479.479 0 0 1-.582-.42l-.24-2.134a.613.613 0 0 0-.594-.527h-1.219a.609.609 0 0 0-.591.527l-.242 2.108a.485.485 0 0 1-.582.426l-2.1-.416a.616.616 0 0 0-.686.4l-.37 1.141a.616.616 0 0 0 .316.729l1.942.9a.486.486 0 0 1 .221.688l-1.036 1.847a.613.613 0 0 0 .171.776l.955.7a.612.612 0 0 0 .789-.077l1.459-1.58a.484.484 0 0 1 .72 0l1.458 1.58a.613.613 0 0 0 .79.077l.957-.7a.613.613 0 0 0 .167-.775l-1.058-1.852a.481.481 0 0 1 .229-.681z" transform="translate(-221.125 585.786)" style="fill:#a0c3e5"/>
        <path data-name="Path 78398" d="m388.428 393.209 1.965-.9a.617.617 0 0 0 .318-.728l-.371-1.141a.606.606 0 0 0-.684-.4l-2.1.432a.476.476 0 0 1-.579-.42l-.242-2.134a.61.61 0 0 0-.591-.527h-1.219a.613.613 0 0 0-.594.527l-.24 2.108a.486.486 0 0 1-.582.426l-2.1-.416a.617.617 0 0 0-.686.4l-.369 1.141a.613.613 0 0 0 .318.729l1.94.9a.488.488 0 0 1 .221.688l-1.037 1.847a.618.618 0 0 0 .169.776l.958.7a.613.613 0 0 0 .79-.077l1.458-1.58a.484.484 0 0 1 .72 0l1.459 1.58a.61.61 0 0 0 .787.077l.957-.7a.61.61 0 0 0 .167-.775l-1.056-1.852a.48.48 0 0 1 .223-.681z" transform="translate(-215.455 585.786)" style="fill:#a0c3e5"/>
    </g>
</svg>
