<svg xmlns="http://www.w3.org/2000/svg" width="60" height="60" viewBox="0 0 60 60">
    <path d="M30 60a30 30 0 1 1 30-30 30.034 30.034 0 0 1-30 30zm0-55.325A25.324 25.324 0 1 0 55.324 30 25.354 25.354 0 0 0 30 4.675zm-.87 40.353a2.506 2.506 0 1 1 2.506-2.505 2.572 2.572 0 0 1-2.506 2.504zm-.3-7.056a2.34 2.34 0 0 1-2.338-2.337v-2.722a2.332 2.332 0 0 1 .846-1.8c.007-.006.736-.612 3.425-2.8 2.61-2.121 2.141-4.065 2.079-4.279-.02-.063-.056-.2-.069-.259a3.159 3.159 0 0 0-3.384-2.317h-.053a3.294 3.294 0 0 0-3.427 2.391 2.338 2.338 0 1 1-4.549-1.08 8.037 8.037 0 0 1 7.971-5.986h.107a7.89 7.89 0 0 1 7.883 5.9c.732 2.321.227 6.138-3.606 9.256-1.091.885-1.855 1.509-2.38 1.937l-.167.136v1.616a2.339 2.339 0 0 1-2.336 2.343z" style="fill:#a0c3e5"/>
</svg>
