<svg xmlns="http://www.w3.org/2000/svg" width="168" height="168" viewBox="0 0 168 168">
    <path data-name="3B" d="M84 168a84 84 0 1 1 84-84 84.1 84.1 0 0 1-84 84zm0-154.91A70.909 70.909 0 1 0 154.907 84 70.991 70.991 0 0 0 84 13.09zm21.085 98.535a6.5 6.5 0 0 1-4.63-1.913L84 93.249l-16.455 16.463a6.545 6.545 0 1 1-9.257-9.257L74.743 84 58.288 67.541a6.545 6.545 0 1 1 9.257-9.257L84 74.74l16.455-16.455a6.545 6.545 0 1 1 9.257 9.257L93.257 84l16.455 16.459a6.541 6.541 0 0 1-4.626 11.169z" style="fill:#ff305a"/>
</svg>
