<svg xmlns="http://www.w3.org/2000/svg" width="120" height="120" viewBox="0 0 120 120">
    <defs>
        <linearGradient id="o0p3fcnyba" x1="-.731" y1="-1.307" x2="1.608" y2="-1.445" gradientUnits="objectBoundingBox">
            <stop offset="0" stop-color="#f5fbff"/>
            <stop offset="1" stop-color="#90c3ea"/>
        </linearGradient>
        <clipPath id="kwlydvck2b">
            <path data-name="Rectangle 40885" transform="translate(813 2139)" style="fill:url(#o0p3fcnyba)" d="M0 0h120v120H0z"/>
        </clipPath>
    </defs>
    <g transform="translate(-813 -2139)" style="clip-path:url(#kwlydvck2b)">
        <path d="M123.774 77.326a47.083 47.083 0 1 1-28.45-43.278l-2.08 3.477 14.487-.14-6.763-12.825L98.5 28.7a53.288 53.288 0 1 0 31.439 48.607h-6.169z" transform="translate(796.662 2122.002)" style="fill-rule:evenodd;fill:url(#o0p3fcnyba)"/>
        <path d="m90.008 62.323-4.242.452.194 1.887 4.242-.452zm-.871-4.888-4.162.887.4 1.855 4.162-.887zm-1.371-4.743L83.717 54l.581 1.807 4.049-1.307zm-1.855-4.581-3.888 1.726.774 1.726 3.888-1.726zM83.6 43.756l-3.678 2.129.952 1.645 3.682-2.13zm-2.758-4.113-3.436 2.5 1.113 1.532 3.436-2.5zm-3.162-3.791-3.178 2.855 1.274 1.4 3.178-2.855zM74.119 32.4l-2.839 3.178 1.4 1.274 2.855-3.178z" transform="translate(834.257 2127.153)" style="fill:url(#o0p3fcnyba)"/>
        <g data-name="Group 84095">
            <path data-name="Path 83175" d="M72.4 30.96a42.105 42.105 0 0 0-42.106 42.1A42.106 42.106 0 1 0 72.4 30.96zM64.818 91.3H42.425v-4.306l10.6-11.364a26.691 26.691 0 0 0 3.253-4.467 6.977 6.977 0 0 0 .965-3.377 5.174 5.174 0 0 0-1.108-3.395 3.914 3.914 0 0 0-3.181-1.322 4.021 4.021 0 0 0-3.454 1.536 6.592 6.592 0 0 0-1.18 4.11h-6.4l-.036-.125a9.861 9.861 0 0 1 2.9-7.5 10.988 10.988 0 0 1 8.167-3.073 11.337 11.337 0 0 1 7.971 2.627 9 9 0 0 1 2.878 7.017 9.813 9.813 0 0 1-1.626 5.485 51.386 51.386 0 0 1-5.379 6.575L50.967 86.1l.036.107v.018h13.779V91.3zm25.431-7.183h-3.7v7.111h-6.558v-7.111H66.337v-3.931l9.883-15.8 3.7-5.932h6.63v20.571h3.7v5.092zm10.759-5.646v-8.094a3.57 3.57 0 0 0-.554-2.251 2.014 2.014 0 0 0-1.662-.643 3.024 3.024 0 0 0-1.323.268 3.058 3.058 0 0 0-.965.75v9.988h-3.681V58.87H96.5v7.719a4.361 4.361 0 0 1 1.573-1.447 3.955 3.955 0 0 1 2.055-.518 4.234 4.234 0 0 1 3.342 1.412 6.6 6.6 0 0 1 1.215 4.378v8.076h-3.682z" transform="translate(800.925 2126.271)" style="fill-rule:evenodd;fill:url(#o0p3fcnyba)"/>
            <path data-name="Path 83176" d="m60.09 52.079-2.807 4.468-3.4 5.388h6.807V51.288l-.113-.048z" transform="translate(819.898 2142.804)" style="fill-rule:evenodd;fill:url(#o0p3fcnyba)"/>
        </g>
    </g>
</svg>
