<svg xmlns="http://www.w3.org/2000/svg" width="60" height="42" viewBox="0 0 60 42">
    <defs>
        <clipPath id="clqhelzdka">
            <path data-name="Rectangle 60148" transform="translate(-12172 -13584)" style="fill:#fff" d="M0 0h60v42H0z"/>
        </clipPath>
        <clipPath id="7n1e27trxb">
            <path data-name="Rectangle 59137" style="fill:#283763" d="M0 0h21.771v21.789H0z"/>
        </clipPath>
    </defs>
    <g data-name="Group 120966" transform="translate(12172 13584)" style="clip-path:url(#clqhelzdka)">
        <path data-name="Path 95001" d="M86.067 30h-.907c-.034 0-.065.008-.1.009-.063 0-.127-.009-.191-.009H74.454a3.576 3.576 0 0 0-3.59 3.54v2.66a3.576 3.576 0 0 0 3.59 3.54h10.417c.065 0 .128-.007.191-.011.033 0 .064.011.1.011h.907a2.384 2.384 0 0 0 2.394-2.36v-5.02A2.384 2.384 0 0 0 86.067 30m-10.32 6.638a1.77 1.77 0 1 1 1.8-1.77 1.785 1.785 0 0 1-1.8 1.77" transform="translate(-12202.149 -13596.3)" style="fill:#283763"/>
        <path data-name="Path 95002" d="M60.909 29.787c-.048 0-.1.008-.145.008H50.348a5.95 5.95 0 0 1-5.984-5.9V21.24a5.949 5.949 0 0 1 5.984-5.9h10.416c.049 0 .1.005.145.006s.1-.006.145-.006h.907V6.669h-45.8a.6.6 0 0 1-.6-.59V5.015c0-.017.008-.03.01-.046s-.01-.044-.01-.067c0-.972 1.076-1.768 2.393-1.768h44.007V1.18A1.192 1.192 0 0 0 60.764 0h-43.94a5.96 5.96 0 0 0-5.984 5.9v10.951a15.092 15.092 0 0 1 4.883-.811 14.873 14.873 0 0 1 14.959 14.75 14.512 14.512 0 0 1-2.161 7.631h32.243a1.193 1.193 0 0 0 1.2-1.18V29.8h-.907c-.049 0-.1-.006-.145-.008" transform="translate(-12178.041 -13584)" style="fill:#283763"/>
        <g data-name="Group 120967">
            <g data-name="Group 120094" transform="translate(-12171.062 -13564.79)" style="clip-path:url(#7n1e27trxb)">
                <path data-name="Path 94027" d="m21.68 8.628-4.933 5.058a.689.689 0 0 0-.18.584l1.164 7.147a.322.322 0 0 1-.266.368.282.282 0 0 1-.051 0 .326.326 0 0 1-.156-.04l-6.1-3.373a.573.573 0 0 0-.281-.072.549.549 0 0 0-.274.073l-6.1 3.372a.322.322 0 0 1-.474-.334L5.2 14.268a.677.677 0 0 0-.178-.58L.091 8.627a.323.323 0 0 1 .181-.544l6.819-1.042a.6.6 0 0 0 .456-.352l3.047-6.5a.322.322 0 0 1 .583 0l3.049 6.5a.614.614 0 0 0 .458.35L21.5 8.08a.322.322 0 0 1 .182.544" style="fill:#283763"/>
            </g>
        </g>
    </g>
</svg>
