<svg xmlns="http://www.w3.org/2000/svg" width="60" height="42" viewBox="0 0 60 42">
    <defs>
        <clipPath id="od2p0c64za">
            <path data-name="Rectangle 60147" transform="translate(-12172 -13584)" style="fill:#fff" d="M0 0h60v42H0z"/>
        </clipPath>
    </defs>
    <g data-name="Group 120965" transform="translate(12172 13584)" style="clip-path:url(#od2p0c64za)">
        <path data-name="Path 94997" d="M86.067 30h-.907c-.034 0-.065.008-.1.009-.063 0-.127-.009-.191-.009H74.454a3.576 3.576 0 0 0-3.59 3.54v2.66a3.576 3.576 0 0 0 3.59 3.54h10.417c.065 0 .128-.007.191-.011.033 0 .064.011.1.011h.907a2.384 2.384 0 0 0 2.394-2.36v-5.02A2.384 2.384 0 0 0 86.067 30m-10.32 6.638a1.77 1.77 0 1 1 1.8-1.77 1.785 1.785 0 0 1-1.8 1.77" transform="translate(-12202.148 -13596.3)" style="fill:#283763"/>
        <path data-name="Path 94998" d="M60.909 29.787c-.048 0-.1.008-.145.008H50.348a5.95 5.95 0 0 1-5.984-5.9V21.24a5.949 5.949 0 0 1 5.984-5.9h10.416c.049 0 .1.005.145.006s.1-.006.145-.006h.907V6.669h-45.8a.6.6 0 0 1-.6-.59V5.015c0-.017.008-.03.01-.046s-.01-.044-.01-.067c0-.972 1.076-1.768 2.393-1.768h44.007V1.18A1.192 1.192 0 0 0 60.764 0h-43.94a5.96 5.96 0 0 0-5.984 5.9v10.951a15.092 15.092 0 0 1 4.883-.811 14.873 14.873 0 0 1 14.959 14.75 14.512 14.512 0 0 1-2.161 7.631h32.243a1.193 1.193 0 0 0 1.2-1.18V29.8h-.907c-.049 0-.1-.006-.145-.008" transform="translate(-12178.041 -13584)" style="fill:#283763"/>
        <path data-name="Path 95000" d="M930.843 573.557h-1.793v-3.774c-.047-1.865-1.364-5.392-6-5.392a6.643 6.643 0 0 0-2.89.6 5.176 5.176 0 0 0-1.835 1.467 6.155 6.155 0 0 0-1.28 3.53v3.568h-1.748a.756.756 0 0 0-.755.756v9.554a.618.618 0 0 0 0 .076 4.372 4.372 0 0 0 1.233 2.841 2.6 2.6 0 0 0 1.719.735h.1c.21 0 3.665.035 6.834.035 1.425 0 3.314-.007 4.216-.04a3.175 3.175 0 0 0 2.956-3.371v-9.826a.756.756 0 0 0-.757-.759zm-5.624 7.752a2.465 2.465 0 0 1-.935.941v1.45a1.21 1.21 0 1 1-2.421 0v-1.44a2.466 2.466 0 1 1 3.355-.949zm1.788-7.752h-7.879V570.3a3.793 3.793 0 0 1 3.939-3.775 3.646 3.646 0 0 1 3.94 3.585z" transform="translate(-13085.538 -14129.551)" style="fill:#283763"/>
    </g>
</svg>
