<svg xmlns="http://www.w3.org/2000/svg" width="120" height="120" viewBox="0 0 120 120">
    <defs>
        <linearGradient id="byuulpwyka" x1="-.731" y1="-1.307" x2="1.608" y2="-1.445" gradientUnits="objectBoundingBox">
            <stop offset="0" stop-color="#f5fbff"/>
            <stop offset="1" stop-color="#90c3ea"/>
        </linearGradient>
        <clipPath id="0nzitcj3jb">
            <path data-name="Path 83171" d="M0 0h120v120H0z" transform="translate(144 1685)" style="fill:url(#byuulpwyka)"/>
        </clipPath>
    </defs>
    <g data-name="Group 84092" transform="translate(-144 -1685)" style="clip-path:url(#0nzitcj3jb)">
        <path data-name="Path 83166" d="M381.855 304.025c9.362.192 17.916 3.179 25.21 10.46a31.138 31.138 0 0 1 5.443 7.343c.344.648.6.893 1.274.591a27.41 27.41 0 0 1 22.224-.629 24.927 24.927 0 0 1 15.063 15.686 23.686 23.686 0 0 1-2.1 20.521 25.59 25.59 0 0 1-18.186 12.615 4.51 4.51 0 0 0-2.519 1.239A675.105 675.105 0 0 1 417.2 382.38c-2.577 2.408-6.084.855-6.724-3-.647-3.9-1.21-7.822-1.724-11.748-.19-1.465-.515-2.653-1.786-3.259a6.731 6.731 0 0 1-1.466-1.173c-1.264-1.15-1.843-.909-2.111.974-.817 5.763-1.776 11.507-2.368 17.3-.55 5.38-4.871 6.465-7.647 3.585-4.784-4.954-9.883-9.471-14.805-14.241a5.7 5.7 0 0 0-3.236-1.43c-9.928-1.814-18.376-6.794-24.232-16.837a31.544 31.544 0 0 1 1.8-33.972 34.617 34.617 0 0 1 23.8-14.218 31.352 31.352 0 0 1 5.154-.336zm-26.4 33.052a19.859 19.859 0 0 0 4.52 12.8c5.073 6.334 11.546 9.083 18.676 9.958a5.936 5.936 0 0 1 3.587 1.756c3.462 3.366 6.968 6.664 10.446 10.008.759.732 1.132.939 1.3-.575.412-3.65 1.071-7.262 1.448-10.912.28-2.726 1.338-4.559 3.449-5.606 6.257-3.11 9.163-8.853 9.166-16.8 0-8.06-3.545-13.7-8.953-17.86a27.7 27.7 0 0 0-17.932-5.732 27.351 27.351 0 0 0-17.25 6.081c-4.999 4.005-8.393 9.298-8.461 16.882zm62.1 32.2c1.721-1.633 3.3-3.09 4.842-4.613 1.975-1.948 3.931-3.581 6.721-3.877a17.177 17.177 0 0 0 10.453-5.2 13.879 13.879 0 0 0-.769-20.947c-6.74-5.544-14.027-6.035-21.651-3.09-1.165.449-1.042 1.346-.956 2.469.547 7.055-.167 13.8-3.626 19.82-1.242 2.163-1.287 2.239.817 3.374a5.848 5.848 0 0 1 3.137 4.893c.263 2.31.649 4.594 1.026 7.175z" transform="translate(-195.577 1399.309)" style="fill:url(#byuulpwyka)"/>
        <path data-name="Path 83167" d="M355.69 316.5c0-1.229.007-2.458 0-3.69-.01-1.258.511-1.924 1.86-1.879 1.525.048 3.05.035 4.575 0 .75-.016 1.358.27 1.406.981.055.759-.6 1.081-1.3 1.107a40.388 40.388 0 0 1-3.246.019c-.907-.042-1.049.431-1.049 1.184s.116 1.239 1.036 1.187c.981-.055 1.969-.029 2.95 0 .711.019 1.338.36 1.329 1.094s-.611 1.046-1.354 1.033c-.933-.016-1.876.058-2.8-.016-1.1-.09-1.139.524-1.168 1.358-.029.917.3 1.216 1.19 1.161 1.03-.061 2.065-.013 3.1-.01.721 0 1.338.29 1.358 1.039a1.111 1.111 0 0 1-1.213 1.055c-1.721.055-3.446.1-5.164.035a1.49 1.49 0 0 1-1.5-1.673c-.013-1.328-.007-2.657-.01-3.985z" transform="translate(-176.281 1419.706)" style="fill:url(#byuulpwyka)"/>
        <path data-name="Path 83168" d="M352.018 316.483c0-1.377.01-2.754 0-4.131-.01-.779.216-1.454 1.094-1.422.833.029 1.055.692 1.1 1.47.061 1.007-.5 2.567.3 2.9 1.177.492 2.7.18 4.07.19.573 0 .557-.437.56-.836.006-.885-.026-1.773.029-2.654a1.019 1.019 0 0 1 1.149-1.071 1 1 0 0 1 .952 1.11q.014 4.5-.006 9a.969.969 0 0 1-.959 1.087c-.737.045-1.065-.4-1.142-1.068-.026-.244.016-.5-.026-.737-.148-.881.492-2.294-.347-2.551a13.107 13.107 0 0 0-4.234-.074c-.457.019-.341.528-.351.849-.019.785.016 1.573-.019 2.358-.029.72-.344 1.251-1.161 1.219-.743-.032-.994-.553-1-1.21-.015-1.479-.006-2.955-.009-4.429z" transform="translate(-184.423 1419.696)" style="fill:url(#byuulpwyka)"/>
        <path data-name="Path 83169" d="M361.553 316.591v-3.976c0-1.123.486-1.74 1.7-1.686 1.081.048 2.162-.022 3.24.029a3.561 3.561 0 0 1 3.446 3.671 3.512 3.512 0 0 1-3.272 3.816 2.417 2.417 0 0 1-.586.048c-1.689-.225-2.587.28-2.3 2.2a1.112 1.112 0 0 1-1.107 1.425c-1.01-.01-1.129-.746-1.126-1.547.012-1.329.005-2.654.005-3.98zm2.217-1.9c-.113 1.023-.151 1.827 1.332 1.724 1.959-.135 2.69-.486 2.651-1.728-.061-1.818-1.461-1.435-2.571-1.586-1.335-.177-1.631.485-1.412 1.592z" transform="translate(-163.282 1419.701)" style="fill:url(#byuulpwyka)"/>
        <path data-name="Path 83170" d="M358.764 316.356c0-1.277.026-2.558-.01-3.835-.023-.82.113-1.576 1.071-1.6 1.058-.019 1.19.8 1.184 1.663-.013 2.117.032 4.231-.019 6.344-.019.833.229 1.139 1.078 1.084.978-.068 1.966-.016 2.947-.013.7 0 1.345.161 1.4.972.058.9-.634 1.184-1.361 1.2a71.797 71.797 0 0 1-4.867-.013 1.357 1.357 0 0 1-1.422-1.531c.015-1.418-.001-2.843-.001-4.271z" transform="translate(-169.485 1419.707)" style="fill:url(#byuulpwyka)"/>
    </g>
</svg>
