<svg xmlns="http://www.w3.org/2000/svg" width="100" height="86" viewBox="0 0 100 86">
    <defs>
        <clipPath id="8tl2512zwa">
            <path data-name="Rectangle 59612" transform="translate(1092 925)" style="stroke:#707070;fill:#a0c3e5" d="M0 0h100v86H0z"/>
        </clipPath>
        <clipPath id="40ok6qzf7b">
            <path data-name="Rectangle 59611" style="fill:#a0c3e5" d="M0 0h83.826v80.452H0z"/>
        </clipPath>
    </defs>
    <g data-name="Group 120467" transform="translate(-1092 -925)" style="clip-path:url(#8tl2512zwa)">
        <g data-name="Group 120466" transform="translate(1100 928)" style="clip-path:url(#40ok6qzf7b)">
            <path data-name="Path 94623" d="M83.817 19.766c0-2.179-1.133-3.22-3.5-3.221h-5.726A15.516 15.516 0 0 0 76 15.043a11.717 11.717 0 0 0 2.173-4.988 7.18 7.18 0 0 0-3.326-7.647A14.869 14.869 0 0 0 64.825.109a31.848 31.848 0 0 0-13.244 4.9 25.617 25.617 0 0 0-2.289 1.5 2.6 2.6 0 0 0-.729 3.416 2.967 2.967 0 0 0 3.3 1.4 5.335 5.335 0 0 0 1.567-.754 31.136 31.136 0 0 1 9.7-4.484 10.637 10.637 0 0 1 7.851.635 2.2 2.2 0 0 1 1.01 3.228 8.863 8.863 0 0 1-4.219 3.864 31.921 31.921 0 0 1-8.263 2.4c-3.253.5-6.527.262-9.792.34a2.715 2.715 0 0 1-2.065-.74c-3.335-2.924-6.673-5.859-10.2-8.585A35.27 35.27 0 0 0 22.458.42a16.918 16.918 0 0 0-12.3 1.772A7.069 7.069 0 0 0 6.4 9.434a10.713 10.713 0 0 0 3.666 7.111c-2.251 0-4.411-.009-6.57 0S.013 17.754.009 19.714q-.018 8.48 0 16.96c0 1.937 1.311 3.132 3.408 3.15 1.191.01 2.382 0 3.7 0V71.803c0 4.824 4.133 8.639 9.355 8.64q25.6 0 51.208.007a8.633 8.633 0 0 0 5.939-2.177 8.988 8.988 0 0 0 3.113-7.064q-.006-15.154 0-30.309v-.95a1.243 1.243 0 0 1 .263-.1c1.308-.011 2.617-.009 3.925-.027 1.832-.025 2.908-1.041 2.906-2.707q-.009-8.676-.009-17.353M13.625 6.75a10.78 10.78 0 0 1 7.917-.838 31.691 31.691 0 0 1 12.882 6.168c1.761 1.394 3.451 2.864 5.174 4.3l-.077.2c-5.827-.242-11.726.575-17.459-1.008a47.7 47.7 0 0 1-4.948-1.682 8.638 8.638 0 0 1-4.447-3.958 2.178 2.178 0 0 1 .959-3.178m10.031 59.101H51.04a2.774 2.774 0 0 1 3.007 2.048 2.588 2.588 0 0 1-2.794 3.008c-2.617.023-5.234.008-7.851.006L21.39 70.9c-2.372 0-3.346-.91-3.345-3.11 0-6.333.046-12.666-.024-19a2.827 2.827 0 1 1 5.637.057V65.85m32.6 2.556a2.631 2.631 0 0 1 2.653-2.552 2.681 2.681 0 0 1 2.784 2.522 2.726 2.726 0 0 1-5.437.031m21.534-34.226h-.932q-34.949 0-69.9.017c-.8 0-1.007-.213-1-.92.045-3.481.038-6.962.053-10.443 0-.2.036-.4.058-.643h71.721z" style="fill:#a0c3e5"/>
        </g>
    </g>
</svg>
