<svg xmlns="http://www.w3.org/2000/svg" width="168" height="168" viewBox="0 0 168 168">
    <g data-name="Group 120913">
        <path data-name="Path 94925" d="M84 0a84 84 0 1 0 84 84A84 84 0 0 0 84 0m0 154.909A70.909 70.909 0 1 1 154.909 84 70.907 70.907 0 0 1 84 154.909" style="fill:#ff9224"/>
        <path data-name="Path 94926" d="M17.087 80.321a7.831 7.831 0 0 1 2.4-5.773 8.009 8.009 0 0 1 5.856-2.374 8.174 8.174 0 1 1 0 16.346 8.009 8.009 0 0 1-5.856-2.374 7.878 7.878 0 0 1-2.4-5.825m4.857-14.784q-.969-13.654-2.753-28.892T17.41 19.457q0-4.8 1.972-6.986t6.231-2.186q4.261 0 6.205 2.186t1.942 6.986q0 1.892-1.916 17.132t-3.05 28.948z" transform="translate(57.474 34.595)" style="fill:#ff9224"/>
    </g>
</svg>
