<svg xmlns="http://www.w3.org/2000/svg" width="60" height="42" viewBox="0 0 60 42">
    <path data-name="Path 94997" d="M86.067 30h-.907c-.034 0-.065.008-.1.009-.063 0-.127-.009-.191-.009H74.454a3.576 3.576 0 0 0-3.59 3.54v2.66a3.576 3.576 0 0 0 3.59 3.54h10.418c.065 0 .128-.007.191-.011.033 0 .064.011.1.011h.907a2.384 2.384 0 0 0 2.394-2.36v-5.02A2.384 2.384 0 0 0 86.067 30m-10.32 6.638a1.77 1.77 0 1 1 1.8-1.77 1.785 1.785 0 0 1-1.8 1.77" transform="translate(-28.461 -12.299)" style="fill:#283763"/>
    <path data-name="Path 94998" d="M60.909 29.788c-.048 0-.1.008-.145.008H50.348a5.95 5.95 0 0 1-5.984-5.9v-2.655a5.949 5.949 0 0 1 5.984-5.9h10.416c.049 0 .1.005.145.006s.1-.006.145-.006h.907V6.67H16.156a.6.6 0 0 1-.6-.59V5.015c0-.017.008-.03.01-.046s-.01-.044-.01-.067c0-.972 1.076-1.768 2.393-1.768h44.012V1.18A1.192 1.192 0 0 0 60.764 0h-43.94a5.96 5.96 0 0 0-5.984 5.9v10.951a15.092 15.092 0 0 1 4.883-.811 14.873 14.873 0 0 1 14.959 14.75 14.512 14.512 0 0 1-2.161 7.631h32.243a1.193 1.193 0 0 0 1.2-1.18V29.8h-.907c-.049 0-.1-.006-.145-.008" transform="translate(-4.353)" style="fill:#283763"/>
    <path data-name="Path 94999" d="M11.369 33.186a11.211 11.211 0 1 0 0 22.421 11.211 11.211 0 1 0 0-22.421m6.062 7.427h-4.208v12.242h-3.73V40.613H5.306v-3.039h12.125z" transform="translate(0 -13.606)" style="fill:#283763"/>
</svg>
